<?xml version="1.0" standalone="no"?>
<!DOCTYPE svg PUBLIC "-//W3C//DTD SVG 20010904//EN"
 "http://www.w3.org/TR/2001/REC-SVG-20010904/DTD/svg10.dtd">
<svg version="1.0" xmlns="http://www.w3.org/2000/svg"
 width="512.000000pt" height="512.000000pt" viewBox="0 0 512.000000 512.000000"
 preserveAspectRatio="xMidYMid meet">

<g transform="translate(0.000000,512.000000) scale(0.100000,-0.100000)"
fill="#000000" stroke="none">
<path d="M1764 4900 c-510 -49 -975 -327 -1259 -750 -388 -579 -387 -1319 0
-1900 246 -368 634 -629 1068 -720 461 -96 963 10 1336 283 l53 39 802 -800
c440 -440 815 -807 831 -815 87 -42 176 -27 245 43 70 69 85 158 43 245 -8 17
-375 391 -815 831 l-800 802 39 53 c273 373 379 875 283 1336 -124 594 -556
1079 -1136 1273 -207 69 -477 100 -690 80z m426 -449 c251 -57 446 -165 631
-350 186 -185 300 -394 355 -651 26 -119 26 -381 0 -500 -55 -257 -169 -466
-355 -651 -185 -186 -394 -299 -651 -355 -126 -27 -392 -25 -516 4 -259 61
-452 167 -635 351 -186 185 -300 394 -355 651 -26 119 -26 381 0 500 53 246
163 455 334 632 97 101 157 149 271 217 138 83 321 148 484 171 97 14 339 3
437 -19z"/>
</g>
</svg>
