<?xml version="1.0" standalone="no"?>
<!DOCTYPE svg PUBLIC "-//W3C//DTD SVG 20010904//EN"
 "http://www.w3.org/TR/2001/REC-SVG-20010904/DTD/svg10.dtd">
<svg version="1.0" xmlns="http://www.w3.org/2000/svg"
 width="512.000000pt" height="512.000000pt" viewBox="0 0 512.000000 512.000000"
 preserveAspectRatio="xMidYMid meet">

<g transform="translate(0.000000,512.000000) scale(0.100000,-0.100000)"
fill="#000000" stroke="none">
<path d="M2405 5108 c-605 -30 -1209 -303 -1650 -743 -399 -400 -656 -923
-730 -1490 -18 -139 -21 -444 -5 -585 33 -303 114 -580 250 -855 409 -829
1232 -1375 2146 -1423 452 -24 870 61 1269 258 680 335 1175 950 1355 1682 57
231 65 309 65 608 0 299 -8 377 -65 608 -88 358 -265 714 -497 1000 -413 509
-1022 847 -1668 926 -153 19 -294 23 -470 14z m1265 -1277 c19 -10 48 -35 64
-55 25 -30 31 -48 34 -99 4 -60 -9 -99 -411 -1246 -229 -652 -424 -1196 -435
-1210 -33 -45 -90 -71 -156 -71 -80 0 -128 28 -154 89 -11 25 -111 262 -222
526 -111 264 -207 485 -214 491 -6 6 -238 107 -516 224 -278 117 -515 217
-526 223 -62 27 -85 164 -41 241 12 22 34 48 48 58 14 11 556 205 1205 433
1273 447 1245 439 1324 396z"/>
</g>
</svg>
